# xmcd CD database file
#
# Track frame offsets:
#	150
#	16893
#	29286
#	45770
#	66021
#	87742
#	101062
#	117555
#	131272
#	144572
#	162493
#	178686
#	197357
#	211450
#	226835
#	241025
#	254808
#	270428
#	287098
#	301017
#	317428
#	333196
#	345000
#
# Disc length: 4765 seconds
#
# Revision: 1
# Processed by: cddbd v1.5.2PL0 Copyright (c) Steve Scherf et al.
# Submitted via: CDex 1.51
#
DISCID=35129b17
DTITLE=Country Compilation - Droue1_2008-2009
DYEAR=2009
DGENRE=Country
TTITLE0=A beautiful day (Dave Sheriff)
TTITLE1=Arizona freeze
TTITLE2=Cmr rah Rumba 1 (Larry Taylor)
TTITLE3=Cmr rah Rumba 2
TTITLE4=Coastin' (Ronan Hardiman)
TTITLE5=Come dance with me (Nancy Hayes)
TTITLE6=Country 2 step (lent)
TTITLE7=Country 2 step (rapide)
TTITLE8=Country walkin' (Keith Urban)
TTITLE9=Cowboy boogie (rapide)
TTITLE10=Cowboy strut
TTITLE11=Easy come easy go 2 (Shania Twain)
TTITLE12=Home to Louisiana (Dube   Anne Taylor)
TTITLE13=Hooked on Country (Atlanta Pops Orch.)
TTITLE14=Jambalaya (Eddy Raven)
TTITLE15=One o one (lent) Love trail of tears (George Ducas)
TTITLE16=One o one that's what I get (rapide)
TTITLE17=Texas waltz (lente)
TTITLE18=Texas waltz (rapide)
TTITLE19=Tush push 1 (lent) ((Garth Brooks)
TTITLE20=Tush push 4 tell me why
TTITLE21=Wanderer 1
TTITLE22=Wild wild west
EXTD=YEAR: 2009
EXTT0=
EXTT1=
EXTT2=
EXTT3=
EXTT4=
EXTT5=
EXTT6=
EXTT7=
EXTT8=
EXTT9=
EXTT10=
EXTT11=
EXTT12=
EXTT13=
EXTT14=
EXTT15=
EXTT16=
EXTT17=
EXTT18=
EXTT19=
EXTT20=
EXTT21=
EXTT22=
PLAYORDER=
